<svg width="172" height="94" viewBox="0 0 172 94" fill="none" xmlns="http://www.w3.org/2000/svg">
<path d="M103.595 43.3854C108.265 41.088 113.178 42.1046 116.999 45.4388C117.16 45.5811 117.848 46.3944 117.989 46.2927C121.79 37.9164 123.832 28.8692 125.631 19.8627C126.763 16.935 131.191 17.2603 131.858 20.3303C132.121 21.5501 131.413 24.1728 131.15 25.4943C129.432 34.0332 126.945 42.7958 123.084 50.5825C125.389 50.6232 127.613 49.8913 129.432 48.4681C132.566 45.9877 135.234 39.5835 136.407 35.7817C136.811 34.4805 137.013 32.3661 137.943 31.3902C139.601 29.6621 142.674 30.3127 143.402 32.6101C143.887 34.1349 142.977 36.6762 142.492 38.1807C141.744 40.5594 140.774 41.6166 141.663 44.1783C142.108 45.4795 142.917 47.4312 144.595 47.1263C147.324 46.5977 149.123 40.3154 149.629 37.9164C150.134 35.5174 150.073 32.2035 153.611 32.4678C157.149 32.7321 156.664 37.5505 156.745 40.1528C156.927 45.8048 156.907 51.4771 156.34 57.129C156.179 58.6945 155.916 60.2396 155.734 61.8051C158.483 62.0491 161.233 62.3744 163.962 62.8216C165.438 63.0656 169.259 63.5739 170.31 64.3668C172.271 65.8509 172.008 69.0225 169.724 69.9781C168.228 70.6083 166.044 69.8154 164.447 69.5511C161.132 69.0022 157.796 68.4533 154.44 68.3313C152.621 75.4674 149.629 83.3557 143.361 87.6862C138.732 90.8781 132.849 93.0535 127.228 91.4677C116.028 88.3164 115.422 75.6097 123.63 68.6566C130.605 62.7606 140.248 61.3375 149.103 61.4595C149.689 58.1252 150.033 54.7096 150.114 51.3347C148.213 53.0019 145.423 54.0184 142.876 53.6321C140.329 53.2458 138.348 51.6804 137.074 49.6269C134.405 53.4288 130.746 56.0108 126.137 56.8037C124.095 57.1697 121.366 57.3933 119.506 56.4581C116.837 60.4023 113.764 63.7365 108.69 64.0821C100.563 64.6311 94.1539 58.7961 97.3077 50.4198L98.9452 47.3092C94.9423 49.078 90.2521 48.895 86.512 46.5977C84.5712 50.4402 82.1452 54.791 78.4859 57.2307C77.0303 58.2065 75.7365 58.6335 73.9978 58.0642C70.9249 57.0274 70.1364 52.4326 69.8534 49.6269C69.6108 49.566 69.6917 49.6879 69.631 49.7489C67.0433 52.6766 64.496 55.2179 61.0996 57.2307C47.6554 65.2613 43.6525 52.5139 48.6865 41.7386C52.8916 32.7524 61.8678 28.4016 71.5718 30.2517C73.6744 30.6583 75.9993 31.2479 76.0599 33.8909C76.1812 39.2786 75.7162 44.5443 76.4643 49.9522C76.4643 50.0946 76.3632 50.2572 76.6058 50.1962C78.3848 48.0818 79.7596 45.6421 80.8715 43.1414C81.8621 40.905 82.408 39.2176 82.8932 36.8389C84.6722 28.3406 93.1228 23.4612 100.967 28.0153L103.13 29.4995C105.758 21.7534 106.89 13.5601 107.719 5.4278C107.901 3.76067 107.598 1.9309 109.074 0.751714C111.358 -1.05773 114.472 0.609398 114.431 3.5167C114.391 6.2207 113.865 9.61594 113.521 12.3403C112.308 21.5704 110.408 30.882 106.001 39.1363L103.555 43.2431L103.595 43.3854ZM94.2752 32.976C91.2629 33.3013 88.9986 36.9405 89.3019 39.8275C89.5647 42.2062 93.9719 42.2672 95.6499 41.6979C97.8535 40.9457 99.0665 38.262 100.138 36.3713C99.1676 34.3179 96.5597 32.7321 94.255 32.976H94.2752ZM68.9234 36.5542C65.527 36.1883 62.1913 36.8999 59.4014 38.8923C55.5804 41.6166 52.6288 47.2076 53.2555 51.965C53.4779 53.6728 53.7811 53.5101 55.2569 53.0019C58.7949 51.782 63.4245 47.5532 65.5675 44.4833C67.1848 42.1655 68.5595 39.4006 68.9234 36.5542ZM108.063 48.7324C105.374 49.078 102.726 52.5749 103.09 55.2789C103.312 56.8444 105.92 57.5763 107.234 57.6576C109.963 57.8203 111.257 56.6207 112.814 54.6283C113.057 54.3437 114.108 52.9815 114.148 52.7579C114.229 52.3919 113.602 51.4771 113.36 51.1721C112.127 49.5863 110.085 48.4681 108.043 48.7324H108.063ZM147.769 68.1076C142.128 68.1483 136.407 68.7786 131.373 71.4622C127.693 73.4343 124.075 76.5043 124.701 81.1803C125.025 83.5184 127.734 85.0839 129.857 85.4498C133.091 86.0191 136.811 84.2706 139.46 82.5018C144.15 79.3709 146.414 73.3733 147.769 68.0873V68.1076Z" fill="#8BC9AA"/>
<path d="M1.25814 53.2257C0.772944 51.7212 0.42926 50.3387 0.24731 48.7732C-0.136808 45.3373 -0.055941 41.4541 0.36861 38.0386C0.48991 37.083 0.793161 36.0462 0.853811 35.1109C1.17728 30.9025 0.934678 26.3077 1.05598 22.0382C1.09641 20.6151 1.05598 19.0293 1.15706 17.6265C1.5614 13.1333 7.66684 13.6213 7.74771 17.7281C7.74771 18.0127 7.64663 18.2567 7.64663 18.521C7.64663 19.9035 7.60619 21.3063 7.70727 22.6888C11.0228 19.8628 17.3709 17.2605 21.3333 20.0458C21.7781 20.3508 22.1218 20.8387 22.4857 21.103C22.5666 21.164 22.5868 21.2453 22.7283 21.2047C24.7297 18.0534 27.9644 15.1258 31.2597 13.357C37.8504 9.77876 43.7941 11.3036 44.7038 19.3749C45.0475 22.3229 44.8251 25.7181 44.623 28.7067C43.976 37.4896 42.8035 46.0692 42.4194 54.9335C41.9948 64.6922 42.1161 74.3087 42.8237 84.0675C42.9652 86.0599 43.3493 88.2353 43.4302 90.1871C43.5919 94.9445 37.7089 95.1884 36.9609 91.2646C36.9002 90.98 36.88 90.5937 36.8396 90.2887C35.3839 78.7205 35.3839 65.7494 35.9298 54.1202C36.3139 46.0692 37.2641 38.3029 37.9313 30.3129C38.1739 27.3039 38.8006 21.7739 38.0728 19.0089C37.7897 17.8704 37.5067 17.8908 36.4352 18.1754C32.7558 19.1716 28.7124 23.3597 26.994 26.6737C25.498 29.581 24.3254 36.0665 19.6958 33.9521C16.6835 32.5899 18.1997 27.9748 17.5326 25.4741C17.0878 25.1488 14.8033 25.9621 14.2575 26.2264C11.1441 27.6292 9.26396 30.2722 8.13183 33.4235C6.99969 36.5748 7.22207 39.726 7.12099 42.9586C7.06034 45.195 7.36359 49.7694 6.47406 51.6602C5.443 53.8356 3.17873 53.246 1.23793 53.2663L1.25814 53.2257Z" fill="#8BC9AA"/>
<path d="M20.4034 37.5911C21.9399 37.3878 24.002 38.2213 24.2244 39.9291C24.3052 40.6204 24.1637 43.0397 23.9818 43.6903C23.254 46.5163 17.937 46.2927 17.5326 43.426C17.4518 42.8364 17.6135 40.2544 17.755 39.6445C18.0178 38.4856 19.3117 37.7334 20.4034 37.5911Z" fill="#8BC9AA"/>
</svg>
